HIERARCHY
ROOT Hips
{
	OFFSET 0.00000 0.00000 0.00000
	CHANNELS 6 Xposition Yposition Zposition Zrotation Yrotation Xrotation 
	JOINT LHipJoint
	{
		OFFSET 0 0 0
		CHANNELS 3 Zrotation Yrotation Xrotation
		JOINT LeftUpLeg
		{
			OFFSET 1.56857 -1.73443 1.15205
			CHANNELS 3 Zrotation Yrotation Xrotation
			JOINT LeftLeg
			{
				OFFSET 2.39362 -6.57643 0.00000
				CHANNELS 3 Zrotation Yrotation Xrotation
				JOINT LeftFoot
				{
					OFFSET 2.50952 -6.89485 0.00000
					CHANNELS 3 Zrotation Yrotation Xrotation
					JOINT LeftToeBase
					{
						OFFSET 0.17171 -0.47178 1.88682
						CHANNELS 3 Zrotation Yrotation Xrotation
						End Site
						{
							OFFSET 0.00000 -0.00000 0.98146
						}
					}
				}
			}
		}
	}
	JOINT RHipJoint
	{
		OFFSET 0 0 0
		CHANNELS 3 Zrotation Yrotation Xrotation
		JOINT RightUpLeg
		{
			OFFSET -1.28153 -1.73443 1.15205
			CHANNELS 3 Zrotation Yrotation Xrotation
			JOINT RightLeg
			{
				OFFSET -2.26861 -6.23296 0.00000
				CHANNELS 3 Zrotation Yrotation Xrotation
				JOINT RightFoot
				{
					OFFSET -2.54143 -6.98254 0.00000
					CHANNELS 3 Zrotation Yrotation Xrotation
					JOINT RightToeBase
					{
						OFFSET -0.23309 -0.64041 1.93119
						CHANNELS 3 Zrotation Yrotation Xrotation
						End Site
						{
							OFFSET -0.00000 -0.00000 1.02013
						}
					}
				}
			}
		}
	}
	JOINT LowerBack
	{
		OFFSET 0 0 0
		CHANNELS 3 Zrotation Yrotation Xrotation
		JOINT Spine
		{
			OFFSET -0.07096 2.10460 -0.27878
			CHANNELS 3 Zrotation Yrotation Xrotation
			JOINT Spine1
			{
				OFFSET -0.00826 2.13662 -0.08279
				CHANNELS 3 Zrotation Yrotation Xrotation
				JOINT Neck
				{
					OFFSET 0 0 0
					CHANNELS 3 Zrotation Yrotation Xrotation
					JOINT Neck1
					{
						OFFSET 0.03239 1.77799 0.24435
						CHANNELS 3 Zrotation Yrotation Xrotation
						JOINT Head
						{
							OFFSET 0.01026 1.74194 -0.49664
							CHANNELS 3 Zrotation Yrotation Xrotation
							End Site
							{
								OFFSET 0.00170 1.83057 -0.19653
							}
						}
					}
				}
				JOINT LeftShoulder
				{
					OFFSET 0 0 0
					CHANNELS 3 Zrotation Yrotation Xrotation
					JOINT LeftArm
					{
						OFFSET 3.19178 1.35907 -0.31412
						CHANNELS 3 Zrotation Yrotation Xrotation
						JOINT LeftForeArm
						{
							OFFSET 4.85247 -0.00000 -0.00000
							CHANNELS 3 Zrotation Yrotation Xrotation
							JOINT LeftHand
							{
								OFFSET 3.55584 -0.00000 0.00000
								CHANNELS 3 Zrotation Yrotation Xrotation
								JOINT LeftFingerBase
								{
									OFFSET 0 0 0
									CHANNELS 3 Zrotation Yrotation Xrotation
									JOINT LeftHandIndex1
									{
										OFFSET 0.69320 -0.00000 0.00000
										CHANNELS 3 Zrotation Yrotation Xrotation
										End Site
										{
											OFFSET 0.55888 -0.00000 0.00000
										}
									}
								}
								JOINT LThumb
								{
									OFFSET 0 0 0
									CHANNELS 3 Zrotation Yrotation Xrotation
									End Site
									{
										OFFSET 0.56741 -0.00000 0.56741
									}
								}
							}
						}
					}
				}
				JOINT RightShoulder
				{
					OFFSET 0 0 0
					CHANNELS 3 Zrotation Yrotation Xrotation
					JOINT RightArm
					{
						OFFSET -3.28999 1.24191 -0.26899
						CHANNELS 3 Zrotation Yrotation Xrotation
						JOINT RightForeArm
						{
							OFFSET -4.64462 -0.00000 0.00000
							CHANNELS 3 Zrotation Yrotation Xrotation
							JOINT RightHand
							{
								OFFSET -3.40703 -0.00000 0.00000
								CHANNELS 3 Zrotation Yrotation Xrotation
								JOINT RightFingerBase
								{
									OFFSET 0 0 0
									CHANNELS 3 Zrotation Yrotation Xrotation
									JOINT RightHandIndex1
									{
										OFFSET -0.61958 -0.00000 0.00000
										CHANNELS 3 Zrotation Yrotation Xrotation
										End Site
										{
											OFFSET -0.49952 -0.00000 0.00000
										}
									}
								}
								JOINT RThumb
								{
									OFFSET 0 0 0
									CHANNELS 3 Zrotation Yrotation Xrotation
									End Site
									{
										OFFSET -0.50715 -0.00000 0.50715
									}
								}
							}
						}
					}
				}
			}
		}
	}
}
MOTION
Frames: 14
Frame Time: .0083333
-28.9927 17.0675 1.7068 0 0 0 0 0 0 -21 0 0 0 0 0 0 0 0 0 0 0 0 0 0 21 0 0 0 0 0 0 0 0 0 0 0 0 0 0 0 0 0 0 0 0 0 0 -16 0 0 21 0 0 11 0 0 0 -8 0 0 0 0 0 0 0 0 0 0 0 0 0 0 0 0 0 0 0 0 8 0 0 0 0 0 0 0 0 0 0 0 0 0 0 0 0 0
-28.9927 17.0675 1.7068 46.4752 82.5686 45.8053 0.0000 0.0000 0.0000 -18.3248 2.9812 12.7063 0.0418 -1.3196 -3.6285 -0.0446 11.7686 -16.1179 0.5116 -4.5848 -12.7282 0.0000 0.0000 0.0000 2.5352 -5.1757 8.3359 -0.0030 -0.3535 0.9712 -0.5223 3.9653 -12.8758 -0.0744 -1.7597 4.8419 -7.5978 1.9029 3.3837 -1.9064 2.2812 0.6185 2.1743 1.1908 -1.4751 4.7280 2.5332 -21.7387 -2.6931 2.7621 21.8895 -1.3201 1.3652 10.7532 -0.0000 0.0000 0.0000 -85.6819 0.0443 41.9062 11.3828 -18.8726 -1.8979 -0.0000 -0.0000 13.1626 13.3092 -25.3326 -5.7796 -7.1250 0.0000 -0.0000 -9.9124 4.3681 9.2712 -0.0000 0.0000 0.0000 87.3680 -2.8177 40.8318 -15.7250 25.1464 -3.5283 0.0000 0.0000 4.9354 -10.0096 -31.3125 5.2409 7.1250 -0.0000 -0.0000 24.9343 -59.9153 -9.4274
-28.9932 17.0687 1.7049 47.2274 82.4944 46.5703 0.0000 0.0000 0.0000 -18.3412 3.3857 12.4251 0.0383 -1.2638 -3.4749 -0.0248 11.3723 -15.8279 0.5259 -4.6474 -12.9056 0.0000 0.0000 0.0000 2.3612 -5.2513 8.3030 -0.0030 -0.3510 0.9646 -0.5189 4.0466 -12.8306 -0.0836 -1.8648 5.1321 -7.7214 1.8948 3.3657 -1.9262 2.2681 0.6113 2.2234 1.1853 -1.4751 4.6978 2.5288 -21.7267 -2.6745 2.7628 21.9036 -1.3084 1.3657 10.7554 -0.0000 0.0000 0.0000 -85.7017 0.0479 41.9146 11.3780 -18.8653 -1.8963 -0.0000 -0.0000 13.2025 13.5557 -25.1709 -5.8551 -7.1250 0.0000 -0.0000 -9.7537 4.4971 9.0943 -0.0000 0.0000 0.0000 87.3002 -2.8927 41.0613 -15.8047 25.2551 -3.5622 0.0000 0.0000 4.6808 -10.2139 -31.5039 5.3788 7.1250 -0.0000 -0.0000 24.8871 -60.1344 -9.5394
-28.9935 17.0704 1.7026 48.1195 82.4080 47.4600 0.0000 0.0000 0.0000 -18.3563 3.8649 12.1664 0.0357 -1.2199 -3.3540 -0.0016 10.9260 -15.5318 0.5562 -4.7770 -13.2737 0.0000 0.0000 0.0000 2.1235 -5.4210 8.2270 -0.0033 -0.3690 1.0139 -0.5118 4.2194 -12.7348 -0.0873 -1.9060 5.2460 -7.8467 1.8656 3.3288 -1.9576 2.2315 0.6410 2.2643 1.1659 -1.4234 4.7206 2.5360 -21.7559 -2.7591 2.7873 21.9368 -1.3389 1.3681 10.7757 0.0000 0.0000 0.0000 -85.7481 -0.0302 41.8557 11.3526 -18.8266 -1.8881 -0.0000 -0.0000 13.2396 13.4070 -25.2685 -5.8097 -7.1250 0.0000 -0.0000 -9.8494 4.4190 9.2009 0.0000 0.0000 0.0000 87.2715 -2.8329 41.1035 -15.7949 25.2417 -3.5580 0.0000 0.0000 4.6532 -10.1681 -31.4682 5.3488 7.1250 -0.0000 -0.0000 24.9039 -60.0917 -9.5208
-28.9930 17.0688 1.7032 47.2628 82.5374 46.5779 0.0000 0.0000 0.0000 -18.2799 3.4994 12.4680 0.0405 -1.2992 -3.5723 -0.0309 11.3402 -15.6912 0.5307 -4.6683 -12.9649 0.0000 0.0000 0.0000 2.4677 -5.0504 8.4177 -0.0026 -0.3324 0.9133 -0.5279 3.8645 -12.9517 -0.0966 -2.0047 5.5186 -7.7199 1.8435 3.3108 -1.8734 2.2109 0.6992 2.2841 1.1506 -1.3497 4.7453 2.5624 -21.8690 -2.8490 2.8339 21.9700 -1.3677 1.3788 10.8129 0.0000 -0.0000 0.0000 -85.8077 -0.0551 41.9780 11.3542 -18.8292 -1.8887 -0.0000 -0.0000 13.4960 14.2470 -24.8751 -6.0964 -7.1250 0.0000 -0.0000 -9.3157 4.7009 8.6382 0.0000 -0.0000 0.0000 87.2169 -2.7054 41.1381 -15.7534 25.1851 -3.5404 0.0000 0.0000 4.7331 -10.1155 -31.3619 5.3047 7.1250 -0.0000 -0.0000 24.8671 -59.9842 -9.4413
-28.9930 17.0669 1.7045 46.9297 82.5598 46.2590 0.0000 0.0000 0.0000 -18.3771 3.0652 12.7092 0.0442 -1.3567 -3.7307 -0.0530 11.7435 -15.9591 0.4905 -4.4908 -12.4616 0.0000 0.0000 0.0000 2.6473 -4.7084 8.5044 -0.0025 -0.3200 0.8793 -0.5407 3.5844 -13.1298 -0.1169 -2.2047 6.0718 -7.7131 1.8272 3.2521 -1.8415 2.1976 0.7378 2.3168 1.1405 -1.2765 4.7148 2.5963 -21.9186 -2.8017 2.8744 21.9412 -1.3388 1.3995 10.8120 0.0000 -0.0000 0.0000 -85.7809 0.0416 42.6102 11.3645 -18.8448 -1.8920 -0.0000 -0.0000 14.1148 16.3156 -24.4825 -6.9165 -7.1250 0.0000 -0.0000 -8.0241 4.8084 7.3977 0.0000 -0.0000 0.0000 87.1774 -2.6247 41.1477 -15.7400 25.1668 -3.5347 0.0000 0.0000 4.9418 -9.9497 -31.3338 5.2123 7.1250 -0.0000 -0.0000 25.0140 -59.9204 -9.4630
-28.9929 17.0672 1.7059 47.1007 82.5012 46.4224 0.0000 0.0000 0.0000 -18.2426 3.5826 12.4411 0.0407 -1.3017 -3.5794 -0.0169 11.2335 -15.7431 0.5115 -4.5844 -12.7269 0.0000 0.0000 0.0000 2.4495 -5.0721 8.3449 -0.0029 -0.3465 0.9521 -0.5269 3.9313 -12.9351 -0.0977 -2.0158 5.5493 -7.7816 1.8462 3.2516 -1.8587 2.2200 0.7236 2.3354 1.1531 -1.2949 4.7011 2.5876 -21.8835 -2.7524 2.8569 21.9571 -1.3216 1.3973 10.8096 0.0000 0.0000 0.0000 -85.8296 -0.0667 41.9497 11.3471 -18.8183 -1.8864 -0.0000 -0.0000 13.4409 14.2462 -25.0732 -6.1411 -7.1250 0.0000 -0.0000 -9.3278 4.5025 8.6850 0.0000 0.0000 0.0000 87.1722 -2.6996 41.0066 -15.7500 25.1805 -3.5389 0.0000 0.0000 5.0999 -9.7589 -31.2869 5.1041 7.1250 -0.0000 -0.0000 25.1703 -59.8343 -9.4744
-28.9923 17.0666 1.7061 46.5649 82.5851 45.8309 0.0000 0.0000 0.0000 -18.0644 3.6731 12.5279 0.0422 -1.3261 -3.6465 0.0036 11.0719 -15.8135 0.4211 -4.1649 -11.5411 0.0000 0.0000 0.0000 2.4925 -5.3381 8.3621 -0.0026 -0.3276 0.9002 -0.5211 4.1208 -12.8546 -0.0729 -1.7423 4.7939 -7.6386 1.8667 3.3320 -1.8466 2.2421 0.7019 2.2644 1.1658 -1.3599 4.7279 2.5611 -21.8629 -2.7526 2.8154 22.0290 -1.3330 1.3821 10.8310 -0.0000 0.0000 0.0000 -85.7943 -0.0427 41.8333 11.3528 -18.8270 -1.8882 -0.0000 -0.0000 13.1898 13.5416 -25.1986 -5.8548 -7.1250 0.0000 -0.0000 -9.7638 4.4712 9.1088 -0.0000 0.0000 0.0000 87.1836 -2.8218 41.0164 -15.7862 25.2299 -3.5543 0.0000 0.0000 4.9069 -9.9226 -31.1067 5.1642 7.1250 -0.0000 -0.0000 24.8500 -59.7108 -9.2705
-28.9932 17.0674 1.7038 47.4226 82.5171 46.7232 0.0000 0.0000 0.0000 -18.4410 3.0959 12.8003 0.0468 -1.3955 -3.8378 -0.0139 11.5234 -16.2033 0.3229 -3.6525 -10.1010 0.0000 0.0000 0.0000 2.3227 -5.3599 8.3396 -0.0026 -0.3324 0.9132 -0.5225 4.1397 -12.8724 -0.0913 -1.9486 5.3636 -7.7189 1.8699 3.3143 -1.9087 2.2453 0.6883 2.2448 1.1688 -1.3648 4.7196 2.5428 -21.9189 -2.6722 2.7694 22.0741 -1.3095 1.3705 10.8549 0.0000 -0.0000 0.0000 -85.7396 -0.0457 41.9515 11.3544 -18.8294 -1.8887 -0.0000 -0.0000 13.1174 13.5923 -25.1403 -5.8648 -7.1250 0.0000 -0.0000 -9.7297 4.5227 9.0665 0.0000 -0.0000 0.0000 87.2082 -2.8388 41.1139 -15.8112 25.2640 -3.5650 0.0000 0.0000 4.7560 -10.2921 -30.8784 5.3243 7.1250 -0.0000 -0.0000 24.2805 -59.5903 -8.9717
-28.9937 17.0693 1.7019 48.5337 82.3498 47.9157 0.0000 0.0000 0.0000 -18.7980 2.9111 12.7470 0.0464 -1.3899 -3.8223 -0.0254 11.7110 -16.3089 0.3390 -3.7414 -10.3503 0.0000 0.0000 0.0000 1.9922 -5.4971 8.1357 -0.0036 -0.3852 1.0584 -0.5125 4.3340 -12.7417 -0.1107 -2.1453 5.9073 -7.9061 1.8735 3.2473 -2.0067 2.2493 0.6447 2.2484 1.1738 -1.3756 4.7306 2.5334 -21.8765 -2.6015 2.7357 22.0629 -1.2911 1.3656 10.8406 -0.0000 -0.0000 0.0000 -85.6878 -0.0264 42.0153 11.3430 -18.8121 -1.8850 -0.0000 -0.0000 13.0572 13.5691 -25.1494 -5.8564 -7.1250 0.0000 -0.0000 -9.7443 4.5167 9.0817 -0.0000 -0.0000 0.0000 87.2814 -2.8563 40.9957 -15.7814 25.2233 -3.5523 0.0000 0.0000 4.9846 -10.2564 -30.8974 5.3084 7.1250 -0.0000 -0.0000 24.3328 -59.5992 -8.9977
-28.9933 17.0683 1.7021 48.4966 82.3320 47.8942 0.0000 0.0000 0.0000 -18.7726 3.0271 12.6940 0.0467 -1.3942 -3.8342 -0.0211 11.6297 -16.2531 0.3727 -3.9213 -10.8553 0.0000 0.0000 0.0000 2.0698 -5.2451 8.1744 -0.0038 -0.3977 1.0927 -0.5226 4.1374 -12.8734 -0.1114 -2.1523 5.9268 -7.9276 1.8750 3.2300 -2.0082 2.2510 0.6249 2.2588 1.1756 -1.3874 4.8257 2.5349 -21.8218 -2.7363 2.7450 22.0604 -1.3546 1.3616 10.8333 -0.0000 -0.0000 0.0000 -85.6957 -0.0051 42.0042 11.3312 -18.7942 -1.8813 -0.0000 -0.0000 13.0985 13.5004 -25.1907 -5.8347 -7.1250 0.0000 -0.0000 -9.7884 4.4845 9.1300 -0.0000 -0.0000 0.0000 87.2951 -2.8530 40.8807 -15.7426 25.1704 -3.5358 0.0000 0.0000 5.1002 -9.9383 -31.0651 5.1663 7.1250 -0.0000 -0.0000 24.7990 -59.6771 -9.2299
-28.9933 17.0668 1.7024 48.0749 82.4138 47.4307 0.0000 0.0000 0.0000 -18.5780 3.2049 12.6631 0.0455 -1.3760 -3.7840 -0.0077 11.4257 -16.1525 0.3687 -3.9003 -10.7964 0.0000 0.0000 0.0000 2.3181 -4.8991 8.3908 -0.0032 -0.3659 1.0054 -0.5374 3.8289 -13.0718 -0.1221 -2.2529 6.2051 -7.8302 1.8732 3.2681 -1.9710 2.2491 0.6528 2.2427 1.1729 -1.3776 4.8950 2.5312 -21.8578 -2.8879 2.7549 22.0738 -1.4195 1.3525 10.8488 -0.0000 -0.0000 0.0000 -85.7031 -0.0185 41.9979 11.3532 -18.8276 -1.8883 -0.0000 -0.0000 13.1687 13.5252 -25.2385 -5.8561 -7.1250 0.0000 -0.0000 -9.7759 4.4334 9.1275 -0.0000 -0.0000 0.0000 87.2612 -2.7977 40.8892 -15.7389 25.1654 -3.5342 0.0000 0.0000 4.9988 -9.7426 -31.0377 5.0591 7.1250 -0.0000 -0.0000 24.9770 -59.6076 -9.2593
-28.9936 17.0666 1.7012 48.5282 82.4310 47.8364 0.0000 0.0000 0.0000 -18.7635 2.8247 12.8891 0.0469 -1.3972 -3.8424 -0.0275 11.7353 -16.3146 0.3664 -3.8883 -10.7626 0.0000 0.0000 0.0000 2.2451 -5.0101 8.4466 -0.0030 -0.3538 0.9722 -0.5344 3.8938 -13.0309 -0.1254 -2.2825 6.2870 -7.8678 1.8528 3.3141 -1.9426 2.2184 0.6859 2.2937 1.1567 -1.3685 4.8078 2.5239 -21.9271 -2.8606 2.7631 22.0855 -1.3935 1.3513 10.8646 0.0000 -0.0000 0.0000 -85.7545 -0.0404 41.9709 11.3769 -18.8637 -1.8960 -0.0000 -0.0000 13.1910 13.0032 -25.3964 -5.6561 -7.1250 0.0000 -0.0000 -10.1014 4.3442 9.4583 0.0000 -0.0000 0.0000 87.1532 -2.7753 40.9531 -15.7609 25.1954 -3.5436 0.0000 0.0000 4.9400 -9.8125 -30.8099 5.0624 7.1250 -0.0000 -0.0000 24.7163 -59.4191 -9.0427
-28.9952 17.0673 1.7008 49.6501 82.3406 48.9563 0.0000 0.0000 0.0000 -19.1064 2.4848 13.0552 0.0501 -1.4446 -3.9732 -0.0646 12.1205 -16.3520 0.4095 -4.1081 -11.3809 0.0000 0.0000 0.0000 2.0077 -5.1066 8.3947 -0.0033 -0.3722 1.0228 -0.5390 3.9154 -13.0876 -0.1165 -2.2008 6.0608 -8.0593 1.8025 3.3399 -1.9468 2.1412 0.6616 2.3981 1.1212 -1.4072 4.7101 2.5421 -21.8798 -2.8122 2.8129 22.0927 -1.3522 1.3725 10.8581 0.0000 -0.0000 0.0000 -85.8449 0.0089 41.7629 11.3620 -18.8411 -1.8912 -0.0000 -0.0000 13.3222 12.4502 -25.4715 -5.4240 -7.1250 0.0000 -0.0000 -10.4403 4.3406 9.7872 0.0000 -0.0000 0.0000 87.0369 -2.8338 41.2135 -15.7965 25.2439 -3.5587 0.0000 0.0000 4.8009 -10.1553 -30.5890 5.2082 7.1250 -0.0000 -0.0000 24.1846 -59.2980 -8.7628
